<svg id="Layer_1" data-name="Layer 1" xmlns="http://www.w3.org/2000/svg" viewBox="0 0 334.23 59.38"><defs><style>.cls-1{fill:#fff;}</style></defs><path class="cls-1" d="M373.32,560.37V516.6h21a8.49,8.49,0,0,1,6.24,2.63,8.66,8.66,0,0,1,2.62,6.3V536.6a8.88,8.88,0,0,1-8.86,8.86h-15v14.91a2.94,2.94,0,0,1-2.95,3,3,3,0,0,1-2.15-.86A2.85,2.85,0,0,1,373.32,560.37Zm6-20.82h15a2.83,2.83,0,0,0,2.07-.86,2.8,2.8,0,0,0,.88-2.09V525.53a2.83,2.83,0,0,0-.88-2.1,2.87,2.87,0,0,0-2.07-.86h-15Z" transform="translate(-373.32 -516.6)"/><path class="cls-1" d="M416.81,560.37v-28a3,3,0,0,1,.86-2.13,2.81,2.81,0,0,1,2.1-.9,2.85,2.85,0,0,1,2.09.88,3,3,0,0,1,.86,2.15V536l4.82-4.12a9.16,9.16,0,0,1,5.83-2.53h4.33a8.88,8.88,0,0,1,8.85,8.86v1.58a2.93,2.93,0,0,1-.86,2.15,2.95,2.95,0,0,1-4.18,0,2.88,2.88,0,0,1-.86-2.1v-1.65a2.94,2.94,0,0,0-2.95-3h-3.84a4.41,4.41,0,0,0-2.74,1.3l-8.4,7.28v16.49a2.81,2.81,0,0,1-.88,2.09,2.95,2.95,0,0,1-5-2.09Z" transform="translate(-373.32 -516.6)"/><path class="cls-1" d="M490,540v12.49q0,4-3.74,7.34a11.51,11.51,0,0,1-7.72,3.38h-6.92a11.28,11.28,0,0,1-7.74-3.43c-2.46-2.28-3.69-4.72-3.69-7.29V540q0-3.85,3.6-7.29a11.17,11.17,0,0,1,7.83-3.43h6.92a11.23,11.23,0,0,1,7.72,3.31Q490,536,490,540Zm-23.83.25v12a3.12,3.12,0,0,0,1.16,2.57l2.21,1.9a3.11,3.11,0,0,0,2.08.63h6.85a4,4,0,0,0,2.74-1.09l1.8-1.58a2.83,2.83,0,0,0,1.09-2.36V540.36a3.1,3.1,0,0,0-1.09-2.6L481,536.11a3.69,3.69,0,0,0-2.46-.88h-6.12a4.54,4.54,0,0,0-3.09.95l-2,1.72A3,3,0,0,0,466.21,540.29Z" transform="translate(-373.32 -516.6)"/><path class="cls-1" d="M509.84,519.55v13.89l2.6-2.08a7.92,7.92,0,0,1,5.1-2H523a7.82,7.82,0,0,1,5.31,2l2.81,2.43a7.58,7.58,0,0,1,1.92,2.92,10,10,0,0,1,.75,3.72v12a9.28,9.28,0,0,1-.7,3.41,7,7,0,0,1-1.62,2.64l-2.56,2.43a9,9,0,0,1-2.82,1.7,8.31,8.31,0,0,1-3.09.76h-5.06q-3.69,0-8.05-4.11v1.16a3,3,0,0,1-3,3,2.94,2.94,0,0,1-2.95-3V519.55a2.8,2.8,0,0,1,.88-2.09,3,3,0,0,1,5,2.09Zm12.65,15.75h-4.08a3.34,3.34,0,0,0-2.25.67l-5.3,4.53a3.5,3.5,0,0,0-1,2.74v6.68a3.06,3.06,0,0,0,1.16,2.46l4.74,4a3.11,3.11,0,0,0,2.15,1h4.81a2.62,2.62,0,0,0,1.76-.63l2.36-2.11a2.36,2.36,0,0,0,.95-2V540.15a2.75,2.75,0,0,0-.95-2.25l-2.15-1.79A3.33,3.33,0,0,0,522.49,535.3Z" transform="translate(-373.32 -516.6)"/><path class="cls-1" d="M547.28,560.37v-28a3,3,0,0,1,.86-2.13,2.78,2.78,0,0,1,2.09-.9,2.83,2.83,0,0,1,2.09.88,2.93,2.93,0,0,1,.86,2.15V536l4.82-4.12a9.18,9.18,0,0,1,5.84-2.53h4.32a8.88,8.88,0,0,1,8.86,8.86v1.58a3,3,0,0,1-.86,2.15,2.85,2.85,0,0,1-2.09.88,2.94,2.94,0,0,1-3-3v-1.65a2.81,2.81,0,0,0-.86-2.09,2.85,2.85,0,0,0-2.09-.86h-3.83a4.39,4.39,0,0,0-2.74,1.3l-8.41,7.28v16.49a2.81,2.81,0,0,1-.88,2.09,2.94,2.94,0,0,1-5-2.09Z" transform="translate(-373.32 -516.6)"/><path class="cls-1" d="M599.57,542h11.58a13.2,13.2,0,0,1,2.75.42l-.07-4.18a2.82,2.82,0,0,0-.87-2.09,2.85,2.85,0,0,0-2.09-.86H599.63a3,3,0,0,1-3-2.95,2.94,2.94,0,0,1,3-3h11.23a8.55,8.55,0,0,1,6.25,2.57,8.87,8.87,0,0,1,2.69,6.29l.74,22.12a2.81,2.81,0,0,1-.88,2.09,2.86,2.86,0,0,1-2.07.86,3,3,0,0,1-2.14-.86,2.81,2.81,0,0,1-.88-2.09l-5,3h-10a8.89,8.89,0,0,1-9-8.93v-3.45a9,9,0,0,1,9-8.93Zm14.77,11.5-.18-2.5a3,3,0,0,0-.88-2.11,2.81,2.81,0,0,0-2.07-.84H599.56a2.94,2.94,0,0,0-3,3v3.31a2.8,2.8,0,0,0,.88,2.07,2.84,2.84,0,0,0,2.08.88h8.34Z" transform="translate(-373.32 -516.6)"/><path class="cls-1" d="M634.25,560.37v-28a3,3,0,0,1,.87-2.13,2.78,2.78,0,0,1,2.09-.9,2.85,2.85,0,0,1,2.09.88,3,3,0,0,1,.86,2.15V536l4.82-4.12a9.16,9.16,0,0,1,5.83-2.53h4.33a8.89,8.89,0,0,1,8.86,8.86v1.58a2.94,2.94,0,0,1-.87,2.15,2.83,2.83,0,0,1-2.09.88,2.94,2.94,0,0,1-2.95-3v-1.65a2.94,2.94,0,0,0-3-3H651.3a4.41,4.41,0,0,0-2.74,1.3l-8.4,7.28v16.49a2.81,2.81,0,0,1-.88,2.09,2.95,2.95,0,0,1-4.16,0A2.84,2.84,0,0,1,634.25,560.37Z" transform="translate(-373.32 -516.6)"/><path class="cls-1" d="M707.55,538l-15.92,36a2.83,2.83,0,0,1-2.81,1.93h-8.19a2.91,2.91,0,0,1-2.1-.84,2.83,2.83,0,0,1-.86-2.11,2.79,2.79,0,0,1,.86-2.07,2.86,2.86,0,0,1,2.09-.85H687l4-9.38h-1.45a3,3,0,0,1-2.89-2.07L677.81,538v-5.69a2.88,2.88,0,0,1,.85-2.1,2.76,2.76,0,0,1,2-.86,3,3,0,0,1,2.12.86,2.81,2.81,0,0,1,.9,2.1v4.39l7.77,18h2l8-17.94,0-4.53a2.85,2.85,0,0,1,.89-2,2.91,2.91,0,0,1,2.13-.9,3,3,0,0,1,2.95,3Z" transform="translate(-373.32 -516.6)"/></svg>